<svg width="128" height="128" viewBox="0 0 128 128" fill="none" xmlns="http://www.w3.org/2000/svg">
<path d="M39.7337 28.7184C39.7337 55.5165 39.7343 82.1667 39.7329 108.817C39.7327 112.167 38.3276 113.975 35.1479 114.84C32.4187 115.583 29.138 113.157 29.0888 110.368C29.0827 110.023 29.0876 109.678 29.0876 109.333C29.0875 79.4812 29.1239 49.6289 29.0425 19.7769C29.0321 15.9577 31.5333 14.0163 34.209 14.0001C37.3797 13.9809 39.5886 16.1516 39.7139 19.852C39.8122 22.7551 39.7336 25.6641 39.7337 28.7184Z" fill="#00A0C6"/>
<path d="M44.1696 93.7768C44.1696 73.1343 44.2032 52.6393 44.1336 32.1446C44.123 29.0476 46.7604 26.8893 49.3508 26.9255C52.2079 26.9654 54.5668 29.0831 54.557 32.122C54.4875 53.7006 54.4864 75.2796 54.5579 96.8581C54.5681 99.9233 52.2094 102.025 49.3732 102.077C46.7665 102.125 43.9292 99.9563 44.1582 96.8795C44.2311 95.8996 44.1696 94.9097 44.1696 93.7768Z" fill="#00A0C6"/>
<path d="M14.0056 59.1782C14.0056 52.3818 14.011 45.7333 14.0025 39.0848C13.9997 36.8603 14.8608 35.0594 16.8298 34.0287C18.9386 32.9247 21.1654 33.0529 22.9054 34.7054C23.7696 35.5262 24.5722 36.9201 24.5789 38.0596C24.6829 55.6899 24.6553 73.3209 24.646 90.9518C24.6451 92.8249 22.7005 95.0939 20.7971 95.5325C18.5745 96.0446 15.888 95.0733 14.9383 93.202C14.4316 92.2037 14.0521 91.0147 14.0449 89.9089C13.9782 79.715 14.0056 69.5204 14.0056 59.1782Z" fill="#00A0C6"/>
<path d="M84.9797 50.6021C84.9797 63.9974 84.9406 77.245 85.0145 90.492C85.0283 92.975 82.8419 95.2514 80.8447 95.5311C77.6294 95.9814 75.2536 94.4511 74.6381 91.6234C74.4647 90.8264 74.3468 89.999 74.346 89.1854C74.3294 72.5893 74.3417 55.9931 74.3269 39.3969C74.3238 35.9479 76.4774 33.1351 80.2356 33.4206C82.649 33.604 84.9683 35.7678 84.9761 38.1918C84.9891 42.2792 84.9797 46.3668 84.9797 50.6021Z" fill="#00A0C6"/>
<path d="M59.5238 44.1294C60.0931 41.3523 62.1291 39.4732 65.7838 39.9682C68.0554 40.2759 69.9446 42.5716 69.9315 44.9689C69.8604 57.973 69.8573 70.9781 69.9337 83.9822C69.948 86.4201 68.0841 88.716 65.8341 89.0248C62.3051 89.509 60.2379 87.9324 59.5544 85.0471C59.3778 84.3014 59.2652 83.5211 59.2641 82.7565C59.2464 70.4908 59.2482 58.2251 59.2624 45.9595C59.2631 45.3912 59.4217 44.8231 59.5238 44.1294Z" fill="#00A0C6"/>
<path d="M89.4157 70.7115C89.4157 64.4526 89.4581 58.3411 89.3958 52.2306C89.3691 49.6184 90.7929 46.7607 93.9891 46.3618C97.1375 45.9689 99.9706 48.0526 100.012 50.901C100.145 59.967 100.083 69.0364 100.047 78.1043C100.037 80.5175 97.8561 82.463 94.9731 82.822C92.9491 83.074 89.9963 81.1328 89.7644 79.062C89.4606 76.3488 89.5152 73.5954 89.4157 70.7115Z" fill="#00A0C6"/>
<path d="M105.434 74.8553C104.225 73.6991 103.897 72.2314 103.902 70.6275C103.914 66.5908 103.855 62.5532 103.919 58.5175C103.996 53.7197 108.259 52.2277 111.202 53.2662C113.076 53.9272 114.542 55.9259 114.548 57.9454C114.562 62.3267 114.516 66.7085 114.567 71.0892C114.594 73.3748 113.653 75.0673 111.627 75.9967C109.605 76.9238 107.61 76.7177 105.733 75.1012C105.548 74.9554 105.493 74.9034 105.434 74.8553Z" fill="#00A0C6"/>
</svg>
